
<svg xmlns="http://www.w3.org/2000/svg" width="20" height="20" style=""><rect id="backgroundrect" width="100%" height="100%" x="0" y="0" fill="none" stroke="none"/>
    
<g class="currentLayer" style=""><title>Layer 1</title><path fill="#ffffff" stroke="#ffffff" stroke-width="1" stroke-linejoin="round" stroke-dashoffset="" fill-rule="nonzero" marker-start="" marker-mid="" marker-end="" id="svg_7" d="M4.269290279505041,4.890365443700622 L6.921385796395025,2.2382699268106574 L9.73866573660826,5.055526778863958 L12.555945676821418,2.2382699268106574 L15.208066114264861,4.890365443700622 L12.39078544109436,7.707645383913824 L15.208066114264861,10.52492532412711 L12.555945676821418,13.177045761570618 L9.73866573660826,10.359765088400033 L6.921385796395025,13.177045761570618 L4.269290279505041,10.52492532412711 L7.086547131558322,7.707645383913824 L4.269290279505041,4.890365443700622 z" style="color: rgb(0, 0, 0);" class="" fill-opacity="1" stroke-opacity="1"/><g fill="none" fill-rule="evenodd" id="svg_1" class="">
        <path fill="#f02525" d="M10 0C4.489 0 0 4.489 0 10s4.489 10 10 10 10-4.489 10-10S15.511 0 10 0z" id="svg_2"/>
    </g><path fill="#ffffff" stroke="none" stroke-dashoffset="" fill-rule="evenodd" marker-start="" marker-mid="" marker-end="" id="svg_6" d="M3.9541882080098962,6.640086205004063 L6.962535223165281,3.631739189848691 L10.15825560541466,6.827433382544748 L13.353975987664002,3.631739189848691 L16.36235127090874,6.640086205004063 L13.166630057244904,9.835806587253485 L16.36235127090874,13.03152696950283 L13.353975987664002,16.039902252747538 L10.15825560541466,12.844181039083761 L6.962535223165281,16.039902252747538 L3.9541882080098962,13.03152696950283 L7.14988240070594,9.835806587253485 L3.9541882080098962,6.640086205004063 z" style="color: rgb(255, 255, 255);" class="" opacity="1"/></g></svg>